HIERARCHY
ROOT Root
{
	OFFSET 0.00000 0.00000 0.00000
	CHANNELS 6 Xposition Yposition Zposition Zrotation Xrotation Yrotation
	JOINT Hips
	{
		OFFSET 0 0 0	
		CHANNELS 3 Zrotation Xrotation Yrotation
		JOINT Spine
		{
			OFFSET 0 4 0	
			CHANNELS 3 Zrotation Xrotation Yrotation
			JOINT Spine1
			{
				OFFSET 0 19.4 0	
				CHANNELS 3 Zrotation Xrotation Yrotation
				JOINT Spine2
				{
					OFFSET 0 16.6 0	
					CHANNELS 3 Zrotation Xrotation Yrotation
					JOINT LeftCollar
					{
						OFFSET 0 10 0	
						CHANNELS 3 Zrotation Xrotation Yrotation
						JOINT LeftArm
						{
							OFFSET 15.6 -2 3	
							CHANNELS 3 Zrotation Xrotation Yrotation
							JOINT LeftForeArm
							{
								OFFSET 3.5 -27 -1	
								CHANNELS 3 Zrotation Xrotation Yrotation
								JOINT LeftHand
								{
									OFFSET 1 -27 1	
									CHANNELS 3 Zrotation Xrotation Yrotation
									End Site
									{
										OFFSET 0 -15 0
									}
								}
							}
						}
					}
					JOINT RightCollar
					{
						OFFSET 0 10 0	
						CHANNELS 3 Zrotation Xrotation Yrotation
						JOINT RightArm
						{
							OFFSET -15.6 -2 3	
							CHANNELS 3 Zrotation Xrotation Yrotation
							JOINT RightForeArm
							{
								OFFSET -3.5 -27 -1	
								CHANNELS 3 Zrotation Xrotation Yrotation
								JOINT RightHand
								{
									OFFSET -1 -27 1	
									CHANNELS 3 Zrotation Xrotation Yrotation
									End Site
									{
										OFFSET 0 -15 0
									}
								}
							}
						}
					}
					JOINT Neck
					{
						OFFSET 0 10 0	
						CHANNELS 3 Zrotation Xrotation Yrotation
						JOINT Head
						{
							OFFSET 0 12.7 3	
							CHANNELS 3 Zrotation Xrotation Yrotation
							End Site
							{
								OFFSET 0 12.7 3
							}
						}
					}
				}
			}
		}
	}
	JOINT LeftHip
	{
		OFFSET 0 0 0	
		CHANNELS 3 Zrotation Xrotation Yrotation
		JOINT LeftUpLeg
		{
			OFFSET 8.8 -6 0	
			CHANNELS 3 Zrotation Xrotation Yrotation
			JOINT LeftLeg
			{
				OFFSET 0 -39 2	
				CHANNELS 3 Zrotation Xrotation Yrotation
				JOINT LeftFoot
				{
					OFFSET 0 -43 -2	
					CHANNELS 3 Zrotation Xrotation Yrotation
					JOINT LeftFootFront
					{
						OFFSET 0 -7 8.5	
						CHANNELS 3 Zrotation Xrotation Yrotation
						End Site
						{
							OFFSET 0 -0.5 9
						}
					}
				}
				JOINT LeftHeel
				{
					OFFSET 0 -43 -2	
					CHANNELS 3 Zrotation Xrotation Yrotation
					End Site
					{
						OFFSET 0 -7.5 -5
					}
				}
			}
		}
	}
	JOINT RightHip
	{
		OFFSET 0 0 0	
		CHANNELS 3 Zrotation Xrotation Yrotation
		JOINT RightUpLeg
		{
			OFFSET -8.8 -6 0	
			CHANNELS 3 Zrotation Xrotation Yrotation
			JOINT RightLeg
			{
				OFFSET 0 -39 2	
				CHANNELS 3 Zrotation Xrotation Yrotation
				JOINT RightFoot
				{
					OFFSET 0 -43 -2	
					CHANNELS 3 Zrotation Xrotation Yrotation
					JOINT RightFootFront
					{
						OFFSET 0 -7 8.5	
						CHANNELS 3 Zrotation Xrotation Yrotation
						End Site
						{
							OFFSET 0 -0.5 9
						}
					}
				}
				JOINT RightHeel
				{
					OFFSET 0 -43 -2	
					CHANNELS 3 Zrotation Xrotation Yrotation
					End Site
					{
						OFFSET 0 -7.5 -5
					}
				}
			}
		}
	}
}
MOTION
Frames: 33
Frame Time: 0.05
0 95.5 0 -0 0 -0 -0 0 -0 -0 0 -0 6.8503 11.883 -16.179 -0 0 -0 -0 0 -0 7.235 -62.333 14.955 -110.27 -35.287 -29.643 -0 0 -0 -0 0 -0 -12.639 -24.895 -8.4236 -41.281 -7.4452 -65.205 -0 0 -0 -2.7123 -18.795 3.1603 -2.7123 -18.795 3.1603 -0 0 -0 -0 0 -0 -0 0 -0 -0 0 -0 -0 0 -0 -0 0 -0 -0 0 -0 -0 0 -0 -0 0 -0 -0 0 -0 -0 0 -0 -0 0 -0 
0 95.5 0 -0 0 -0 -0 0 -0 -0 0 -0 6.7692 11.845 -16.183 -0 0 -0 -0 0 -0 6.9897 -62.412 14.488 -110.19 -35.412 -29.791 -0 0 -0 -0 0 -0 -12.574 -25.069 -8.2294 -41.228 -7.0864 -65.183 -0 0 -0 -2.8037 -18.802 2.9778 -2.8037 -18.802 2.9778 -0 0 -0 -0 0 -0 -0 0 -0 -0 0 -0 -0 0 -0 -0 0 -0 -0 0 -0 -0 0 -0 -0 0 -0 -0 0 -0 -0 0 -0 -0 0 -0 
0 95.5 0 -0 0 -0 -0 0 -0 -0 0 -0 6.7735 11.771 -16.228 -0 0 -0 -0 0 -0 6.7826 -62.426 14.201 -110.17 -35.392 -29.803 -0 0 -0 -0 0 -0 -12.593 -25.198 -8.0274 -41.194 -6.7764 -65.159 -0 0 -0 -2.9205 -18.79 2.8884 -2.9205 -18.79 2.8884 -0 0 -0 -0 0 -0 -0 0 -0 -0 0 -0 -0 0 -0 -0 0 -0 -0 0 -0 -0 0 -0 -0 0 -0 -0 0 -0 -0 0 -0 -0 0 -0 
0 95.5 0 -0 0 -0 -0 0 -0 -0 0 -0 6.7822 11.683 -16.234 -0 0 -0 -0 0 -0 6.5838 -62.443 13.921 -110.23 -35.369 -29.845 -0 0 -0 -0 0 -0 -12.632 -25.29 -7.891 -41.177 -6.5259 -65.149 -0 0 -0 -3.0358 -18.758 2.8341 -3.0358 -18.758 2.8341 -0 0 -0 -0 0 -0 -0 0 -0 -0 0 -0 -0 0 -0 -0 0 -0 -0 0 -0 -0 0 -0 -0 0 -0 -0 0 -0 -0 0 -0 -0 0 -0 
0 95.5 0 -0 0 -0 -0 0 -0 -0 0 -0 6.7352 11.599 -16.182 -0 0 -0 -0 0 -0 6.2781 -62.481 13.517 -110.33 -35.338 -29.871 -0 0 -0 -0 0 -0 -12.638 -25.348 -7.8338 -41.16 -6.3089 -65.113 -0 0 -0 -3.1182 -18.683 2.7553 -3.1182 -18.683 2.7553 -0 0 -0 -0 0 -0 -0 0 -0 -0 0 -0 -0 0 -0 -0 0 -0 -0 0 -0 -0 0 -0 -0 0 -0 -0 0 -0 -0 0 -0 -0 0 -0 
0 95.5 0 -0 0 -0 -0 0 -0 -0 0 -0 6.6944 11.555 -16.159 -0 0 -0 -0 0 -0 5.9395 -62.554 13.092 -110.41 -35.369 -29.852 -0 0 -0 -0 0 -0 -12.635 -25.402 -7.7059 -41.129 -6.0969 -65.091 -0 0 -0 -3.1904 -18.615 2.6598 -3.1904 -18.615 2.6598 -0 0 -0 -0 0 -0 -0 0 -0 -0 0 -0 -0 0 -0 -0 0 -0 -0 0 -0 -0 0 -0 -0 0 -0 -0 0 -0 -0 0 -0 -0 0 -0 
0 95.5 0 -0 0 -0 -0 0 -0 -0 0 -0 6.6457 11.531 -16.163 -0 0 -0 -0 0 -0 5.6918 -62.629 12.786 -110.51 -35.415 -29.837 -0 0 -0 -0 0 -0 -12.643 -25.473 -7.5522 -41.06 -5.8765 -65.074 -0 0 -0 -3.278 -18.586 2.585 -3.278 -18.586 2.585 -0 0 -0 -0 0 -0 -0 0 -0 -0 0 -0 -0 0 -0 -0 0 -0 -0 0 -0 -0 0 -0 -0 0 -0 -0 0 -0 -0 0 -0 -0 0 -0 
0 95.5 0 -0 0 -0 -0 0 -0 -0 0 -0 6.6099 11.482 -16.137 -0 0 -0 -0 0 -0 5.3666 -62.619 12.467 -110.6 -35.452 -29.859 -0 0 -0 -0 0 -0 -12.663 -25.506 -7.4727 -40.998 -5.6984 -65.037 -0 0 -0 -3.3632 -18.505 2.5127 -3.3632 -18.505 2.5127 -0 0 -0 -0 0 -0 -0 0 -0 -0 0 -0 -0 0 -0 -0 0 -0 -0 0 -0 -0 0 -0 -0 0 -0 -0 0 -0 -0 0 -0 -0 0 -0 
0 95.5 0 -0 0 -0 -0 0 -0 -0 0 -0 6.536 11.461 -16.13 -0 0 -0 -0 0 -0 5.214 -62.604 12.333 -110.64 -35.46 -29.831 -0 0 -0 -0 0 -0 -12.623 -25.566 -7.3709 -40.929 -5.5278 -65.015 -0 0 -0 -3.4077 -18.463 2.4708 -3.4077 -18.463 2.4708 -0 0 -0 -0 0 -0 -0 0 -0 -0 0 -0 -0 0 -0 -0 0 -0 -0 0 -0 -0 0 -0 -0 0 -0 -0 0 -0 -0 0 -0 -0 0 -0 
0 95.5 0 -0 0 -0 -0 0 -0 -0 0 -0 6.4626 11.428 -16.167 -0 0 -0 -0 0 -0 5.147 -62.577 12.278 -110.63 -35.486 -29.817 -0 0 -0 -0 0 -0 -12.557 -25.608 -7.1633 -40.877 -5.3456 -65.043 -0 0 -0 -3.4408 -18.45 2.4572 -3.4408 -18.45 2.4572 -0 0 -0 -0 0 -0 -0 0 -0 -0 0 -0 -0 0 -0 -0 0 -0 -0 0 -0 -0 0 -0 -0 0 -0 -0 0 -0 -0 0 -0 -0 0 -0 
0 95.5 0 -0 0 -0 -0 0 -0 -0 0 -0 6.4107 11.41 -16.189 -0 0 -0 -0 0 -0 5.0464 -62.539 12.202 -110.59 -35.531 -29.841 -0 0 -0 -0 0 -0 -12.537 -25.676 -7.0077 -40.828 -5.1663 -65.043 -0 0 -0 -3.4879 -18.427 2.4212 -3.4879 -18.427 2.4212 -0 0 -0 -0 0 -0 -0 0 -0 -0 0 -0 -0 0 -0 -0 0 -0 -0 0 -0 -0 0 -0 -0 0 -0 -0 0 -0 -0 0 -0 -0 0 -0 
0 95.5 0 -0 0 -0 -0 0 -0 -0 0 -0 6.3626 11.386 -16.171 -0 0 -0 -0 0 -0 4.8877 -62.492 12.069 -110.51 -35.614 -29.976 -0 0 -0 -0 0 -0 -12.517 -25.73 -6.9272 -40.8 -5.019 -65.036 -0 0 -0 -3.549 -18.361 2.3553 -3.549 -18.361 2.3553 -0 0 -0 -0 0 -0 -0 0 -0 -0 0 -0 -0 0 -0 -0 0 -0 -0 0 -0 -0 0 -0 -0 0 -0 -0 0 -0 -0 0 -0 -0 0 -0 
0 95.5 0 -0 0 -0 -0 0 -0 -0 0 -0 6.3214 11.37 -16.135 -0 0 -0 -0 0 -0 4.7033 -62.475 11.895 -110.44 -35.748 -30.284 -0 0 -0 -0 0 -0 -12.472 -25.757 -6.8314 -40.813 -4.9001 -65.066 -0 0 -0 -3.6096 -18.3 2.2739 -3.6096 -18.3 2.2739 -0 0 -0 -0 0 -0 -0 0 -0 -0 0 -0 -0 0 -0 -0 0 -0 -0 0 -0 -0 0 -0 -0 0 -0 -0 0 -0 -0 0 -0 -0 0 -0 
0 95.5 0 -0 0 -0 -0 0 -0 -0 0 -0 6.2898 11.346 -16.106 -0 0 -0 -0 0 -0 4.5621 -62.47 11.741 -110.44 -35.888 -30.676 -0 0 -0 -0 0 -0 -12.45 -25.777 -6.7486 -40.825 -4.7971 -65.067 -0 0 -0 -3.6915 -18.25 2.181 -3.6915 -18.25 2.181 -0 0 -0 -0 0 -0 -0 0 -0 -0 0 -0 -0 0 -0 -0 0 -0 -0 0 -0 -0 0 -0 -0 0 -0 -0 0 -0 -0 0 -0 -0 0 -0 
0 95.5 0 -0 0 -0 -0 0 -0 -0 0 -0 6.2833 11.31 -16.084 -0 0 -0 -0 0 -0 4.3551 -62.458 11.527 -110.39 -35.976 -30.841 -0 0 -0 -0 0 -0 -12.447 -25.817 -6.6898 -40.836 -4.6873 -65.049 -0 0 -0 -3.7869 -18.184 2.0794 -3.7869 -18.184 2.0794 -0 0 -0 -0 0 -0 -0 0 -0 -0 0 -0 -0 0 -0 -0 0 -0 -0 0 -0 -0 0 -0 -0 0 -0 -0 0 -0 -0 0 -0 -0 0 -0 
0 95.5 0 -0 0 -0 -0 0 -0 -0 0 -0 6.2471 11.29 -16.076 -0 0 -0 -0 0 -0 4.1656 -62.431 11.279 -110.34 -36.107 -31.161 -0 0 -0 -0 0 -0 -12.422 -25.844 -6.6009 -40.817 -4.5759 -65.068 -0 0 -0 -3.8577 -18.116 1.973 -3.8577 -18.116 1.973 -0 0 -0 -0 0 -0 -0 0 -0 -0 0 -0 -0 0 -0 -0 0 -0 -0 0 -0 -0 0 -0 -0 0 -0 -0 0 -0 -0 0 -0 -0 0 -0 
0 95.5 0 -0 0 -0 -0 0 -0 -0 0 -0 6.2013 11.3 -16.074 -0 0 -0 -0 0 -0 3.9567 -62.413 11.009 -110.27 -36.271 -31.636 -0 0 -0 -0 0 -0 -12.383 -25.875 -6.5269 -40.794 -4.4909 -65.075 -0 0 -0 -3.9242 -18.055 1.8477 -3.9242 -18.055 1.8477 -0 0 -0 -0 0 -0 -0 0 -0 -0 0 -0 -0 0 -0 -0 0 -0 -0 0 -0 -0 0 -0 -0 0 -0 -0 0 -0 -0 0 -0 -0 0 -0 
0 95.5 0 -0 0 -0 -0 0 -0 -0 0 -0 6.1911 11.271 -16.127 -0 0 -0 -0 0 -0 3.747 -62.348 10.789 -110.17 -36.466 -32.149 -0 0 -0 -0 0 -0 -12.366 -25.906 -6.3829 -40.774 -4.3846 -65.086 -0 0 -0 -4.0035 -17.98 1.7367 -4.0034 -17.98 1.7367 -0 0 -0 -0 0 -0 -0 0 -0 -0 0 -0 -0 0 -0 -0 0 -0 -0 0 -0 -0 0 -0 -0 0 -0 -0 0 -0 -0 0 -0 -0 0 -0 
0 95.5 0 -0 0 -0 -0 0 -0 -0 0 -0 6.1993 11.251 -16.18 -0 0 -0 -0 0 -0 3.4596 -62.211 10.509 -110.11 -36.614 -32.736 -0 0 -0 -0 0 -0 -12.39 -25.971 -6.2515 -40.74 -4.2542 -65.077 -0 0 -0 -4.1011 -17.909 1.6189 -4.1011 -17.909 1.6189 -0 0 -0 -0 0 -0 -0 0 -0 -0 0 -0 -0 0 -0 -0 0 -0 -0 0 -0 -0 0 -0 -0 0 -0 -0 0 -0 -0 0 -0 -0 0 -0 
0 95.5 0 -0 0 -0 -0 0 -0 -0 0 -0 6.1494 11.277 -16.161 -0 0 -0 -0 0 -0 3.2366 -62.069 10.223 -110.06 -36.685 -33.155 -0 0 -0 -0 0 -0 -12.33 -26.038 -6.1862 -40.741 -4.1485 -65.05 -0 0 -0 -4.1493 -17.766 1.4793 -4.1493 -17.766 1.4793 -0 0 -0 -0 0 -0 -0 0 -0 -0 0 -0 -0 0 -0 -0 0 -0 -0 0 -0 -0 0 -0 -0 0 -0 -0 0 -0 -0 0 -0 -0 0 -0 
0 95.5 0 -0 0 -0 -0 0 -0 -0 0 -0 6.0461 11.268 -16.155 -0 0 -0 -0 0 -0 3.2315 -61.794 10.246 -109.91 -36.612 -33.543 -0 0 -0 -0 0 -0 -12.201 -26.092 -6.0746 -40.757 -4.0203 -65.02 -0 0 -0 -4.0917 -17.406 1.4097 -4.0917 -17.406 1.4097 -0 0 -0 -0 0 -0 -0 0 -0 -0 0 -0 -0 0 -0 -0 0 -0 -0 0 -0 -0 0 -0 -0 0 -0 -0 0 -0 -0 0 -0 -0 0 -0 
0 95.5 0 -0 0 -0 -0 0 -0 -0 0 -0 5.9431 11.218 -16.135 -0 0 -0 -0 0 -0 3.3636 -61.359 10.568 -109.56 -36.344 -33.393 -0 0 -0 -0 0 -0 -12.11 -26.139 -6.0196 -40.772 -3.8939 -64.95 -0 0 -0 -3.9605 -16.877 1.3786 -3.9605 -16.877 1.3786 -0 0 -0 -0 0 -0 -0 0 -0 -0 0 -0 -0 0 -0 -0 0 -0 -0 0 -0 -0 0 -0 -0 0 -0 -0 0 -0 -0 0 -0 -0 0 -0 
0 95.5 0 -0 0 -0 -0 0 -0 -0 0 -0 5.8343 11.184 -16.05 -0 0 -0 -0 0 -0 3.5349 -60.865 10.937 -109.07 -35.974 -32.955 -0 0 -0 -0 0 -0 -12.023 -26.186 -6.0758 -40.808 -3.8138 -64.863 -0 0 -0 -3.7751 -16.368 1.331 -3.7751 -16.368 1.331 -0 0 -0 -0 0 -0 -0 0 -0 -0 0 -0 -0 0 -0 -0 0 -0 -0 0 -0 -0 0 -0 -0 0 -0 -0 0 -0 -0 0 -0 -0 0 -0 
0 95.5 0 -0 0 -0 -0 0 -0 -0 0 -0 5.7365 11.165 -15.919 -0 0 -0 -0 0 -0 3.6189 -60.372 11.332 -108.39 -35.262 -31.604 -0 0 -0 -0 0 -0 -11.983 -26.211 -6.1663 -40.808 -3.7327 -64.779 -0 0 -0 -3.5909 -15.977 1.2372 -3.5909 -15.977 1.2372 -0 0 -0 -0 0 -0 -0 0 -0 -0 0 -0 -0 0 -0 -0 0 -0 -0 0 -0 -0 0 -0 -0 0 -0 -0 0 -0 -0 0 -0 -0 0 -0 
0 95.5 0 -0 0 -0 -0 0 -0 -0 0 -0 5.6847 11.12 -15.837 -0 0 -0 -0 0 -0 3.7717 -59.869 11.847 -107.41 -34.304 -29.243 -0 0 -0 -0 0 -0 -11.943 -26.228 -6.1179 -40.813 -3.6075 -64.724 -0 0 -0 -3.4504 -15.682 1.1439 -3.4504 -15.682 1.1439 -0 0 -0 -0 0 -0 -0 0 -0 -0 0 -0 -0 0 -0 -0 0 -0 -0 0 -0 -0 0 -0 -0 0 -0 -0 0 -0 -0 0 -0 -0 0 -0 
0 95.5 0 -0 0 -0 -0 0 -0 -0 0 -0 5.6158 11.051 -15.813 -0 0 -0 -0 0 -0 3.9849 -59.386 12.264 -106.39 -33.41 -26.732 -0 0 -0 -0 0 -0 -11.853 -26.257 -6.0457 -40.825 -3.4944 -64.649 -0 0 -0 -3.3756 -15.496 1.0889 -3.3756 -15.496 1.0889 -0 0 -0 -0 0 -0 -0 0 -0 -0 0 -0 -0 0 -0 -0 0 -0 -0 0 -0 -0 0 -0 -0 0 -0 -0 0 -0 -0 0 -0 -0 0 -0 
0 95.5 0 -0 0 -0 -0 0 -0 -0 0 -0 5.5308 10.952 -15.761 -0 0 -0 -0 0 -0 4.143 -58.916 12.398 -105.57 -32.997 -25.629 -0 0 -0 -0 0 -0 -11.764 -26.245 -6.0692 -40.88 -3.4266 -64.542 -0 0 -0 -3.3542 -15.404 1.0072 -3.3542 -15.404 1.0072 -0 0 -0 -0 0 -0 -0 0 -0 -0 0 -0 -0 0 -0 -0 0 -0 -0 0 -0 -0 0 -0 -0 0 -0 -0 0 -0 -0 0 -0 -0 0 -0 
0 95.5 0 -0 0 -0 -0 0 -0 -0 0 -0 5.5179 10.851 -15.799 -0 0 -0 -0 0 -0 4.2081 -58.522 12.514 -104.78 -32.761 -24.87 -0 0 -0 -0 0 -0 -11.707 -26.285 -6.0324 -40.959 -3.3598 -64.426 -0 0 -0 -3.3504 -15.352 0.9653 -3.3504 -15.352 0.9653 -0 0 -0 -0 0 -0 -0 0 -0 -0 0 -0 -0 0 -0 -0 0 -0 -0 0 -0 -0 0 -0 -0 0 -0 -0 0 -0 -0 0 -0 -0 0 -0 
0 95.5 0 -0 0 -0 -0 0 -0 -0 0 -0 5.4842 10.76 -15.871 -0 0 -0 -0 0 -0 4.2332 -58.171 12.593 -103.97 -32.496 -23.779 -0 0 -0 -0 0 -0 -11.597 -26.359 -5.9403 -41.036 -3.2792 -64.326 -0 0 -0 -3.305 -15.293 0.98998 -3.305 -15.293 0.98999 -0 0 -0 -0 0 -0 -0 0 -0 -0 0 -0 -0 0 -0 -0 0 -0 -0 0 -0 -0 0 -0 -0 0 -0 -0 0 -0 -0 0 -0 -0 0 -0 
0 95.5 0 -0 0 -0 -0 0 -0 -0 0 -0 5.4637 10.681 -15.961 -0 0 -0 -0 0 -0 4.308 -57.883 12.771 -103.24 -32.163 -22.62 -0 0 -0 -0 0 -0 -11.47 -26.435 -5.8138 -41.138 -3.2206 -64.245 -0 0 -0 -3.2344 -15.314 1.0622 -3.2344 -15.314 1.0622 -0 0 -0 -0 0 -0 -0 0 -0 -0 0 -0 -0 0 -0 -0 0 -0 -0 0 -0 -0 0 -0 -0 0 -0 -0 0 -0 -0 0 -0 -0 0 -0 
0 95.5 0 -0 0 -0 -0 0 -0 -0 0 -0 5.4746 10.624 -15.992 -0 0 -0 -0 0 -0 4.2544 -57.669 12.757 -102.67 -31.962 -21.899 -0 0 -0 -0 0 -0 -11.422 -26.482 -5.7452 -41.222 -3.1736 -64.17 -0 0 -0 -3.1749 -15.405 1.1162 -3.1749 -15.405 1.1162 -0 0 -0 -0 0 -0 -0 0 -0 -0 0 -0 -0 0 -0 -0 0 -0 -0 0 -0 -0 0 -0 -0 0 -0 -0 0 -0 -0 0 -0 -0 0 -0 
0 95.5 0 -0 0 -0 -0 0 -0 -0 0 -0 5.4797 10.598 -15.966 -0 0 -0 -0 0 -0 4.235 -57.495 12.744 -102.26 -31.677 -21.067 -0 0 -0 -0 0 -0 -11.357 -26.51 -5.7283 -41.317 -3.1617 -64.144 -0 0 -0 -3.1248 -15.482 1.132 -3.1248 -15.482 1.132 -0 0 -0 -0 0 -0 -0 0 -0 -0 0 -0 -0 0 -0 -0 0 -0 -0 0 -0 -0 0 -0 -0 0 -0 -0 0 -0 -0 0 -0 -0 0 -0 
0 95.5 0 -0 0 -0 -0 0 -0 -0 0 -0 5.4882 10.583 -15.935 -0 0 -0 -0 0 -0 4.1644 -57.333 12.646 -101.97 -31.41 -20.343 -0 0 -0 -0 0 -0 -11.312 -26.524 -5.7156 -41.406 -3.1682 -64.151 -0 0 -0 -3.0879 -15.538 1.1316 -3.0879 -15.538 1.1316 -0 0 -0 -0 0 -0 -0 0 -0 -0 0 -0 -0 0 -0 -0 0 -0 -0 0 -0 -0 0 -0 -0 0 -0 -0 0 -0 -0 0 -0 -0 0 -0 
